<?xml version="1.0" encoding="utf-8"?>
<!-- Generator: Adobe Illustrator 19.2.1, SVG Export Plug-In . SVG Version: 6.00 Build 0)  -->
<svg version="1.1" id="layer" xmlns="http://www.w3.org/2000/svg" xmlns:xlink="http://www.w3.org/1999/xlink" x="0px" y="0px"
	 viewBox="0 0 652 652" style="enable-background:new 0 0 652 652;" xml:space="preserve">
<style type="text/css">
	.st0{fill:#00ACE9;}
</style>
<g>
	<path class="st0" d="M121.7,279.7l1.9-1.9c6.2-5.5,9.9-7.5,17.7-9.8c5-1.5,10.9-1.7,15.7-1.4c2.7,0.2,4.8,0.5,7,0.9
		c6,0.9,12,4.1,17.8,7.8c4,2.5,7.6,7,9.7,10.3c1,1.4,1.5,2.7,1.9,3.3c0.6,1,1,2.1,1.4,3.3c1.5,3.9,2.3,9.1,2.5,15.8v80.3l-29.1,0
		v-72.2c0-1.1,0.4-4.9-1.1-11c-1.4-6-4.2-7.9-4.2-7.9c-3.4-2.8-5.5-3.4-7.8-3.9c-2.4-0.5-5.9-0.6-9.4-0.5c-3.4,0.1-7.6,1.7-9.3,2.3
		c-1.6,0.7-4.8,2.4-8.7,6.7c-3.8,4.2-5.8,12.3-6,17.7V388H92.5V221.7h29.2V279.7 M580.5,286.9v-18.2l-28.6,0v119.4h28.5v-66.4
		c0.5-10.3,3.3-13.3,8.9-18.3c5.6-5,13.9-6.5,15.6-6.6c1.7-0.2,8.6-1,16.3,0.8v-29.8c-5.7-1.2-16.8,1.1-19.2,1.9
		c-2.3,0.8-7.5,2.7-12.5,6.6C584.6,280,581.6,284.8,580.5,286.9 M502.4,365.1c8.7-4.3,13.2-11.9,14.3-19.5h30.1v1.1
		c-0.8,10.1-7.5,20.2-12.4,25.8c-4.9,5.6-16.4,14.9-32.7,17.4c-16.3,2.6-27.8-0.9-30-1.3c-2.1-0.4-14.6-4.8-22.9-12.9
		c-8.2-8.1-12.7-18.1-12.9-19.3c-0.2-1.2-4.8-9.4-4.7-29.6c0.1-20.2,6.6-32,6.6-32c8.5-15.6,18.5-21.4,26.9-25.1
		c8.4-3.7,22-7.1,38.5-3.4c16.4,3.8,27.9,12.6,35.8,26.2c7.9,13.7,8.4,32.1,7.6,42.3l-87.3,0l0,0c-0.1,0-0.1,13.6,8.6,23.3
		C478,369.3,493.6,369.3,502.4,365.1 M460.7,312.5l56.5,0.1c-0.4-7.2-2.4-14.6-13.3-21.8c-10.8-7.2-23.6-3.8-28.4-1.1
		C470.7,292.5,462.2,298.3,460.7,312.5 M316.2,388.1h-34.9v-10.8c-8.4,7.6-16.6,9.8-18.9,10.5c-2.2,0.7-10.4,2.8-21.1,1.8
		c-10.6-1-17.9-4-25.5-9.4c-7.6-5.3-11.3-12.8-13.3-21.5c-2-8.7,1.2-17.7,3.1-21.4c1.9-3.7,9.2-12.8,17.5-15.5
		c8.3-2.7,13.6-4.3,26.5-6.6l25.7-5.2c3-0.5,4.3-1.9,5.1-2.7c0.7-0.8,1.3-4,1.1-6.9c-0.2-2.9-0.2-5.8-5.5-9.4
		c-5.3-3.5-15.3-3.2-15.3-3.2c-11.6,0.3-17.7,2.3-21.6,6.1c-3.9,3.8-3.5,13-3.5,13h-28.1c0.4-7.6,1.5-16.7,5.9-23.6
		c4.4-6.8,12-12.6,23.6-15.7c0,0,12.7-2.5,21.8-2.3c9.2,0.2,16,0.8,21.7,2.4c5.7,1.5,12.5,3.3,18,7.4l1.1,0.9
		c11.2,8.8,9.8,19.1,10.1,22.4v72.7C309.7,377.8,313.6,384.3,316.2,388.1 M281.3,343v-14c0,0-7.4,2.2-12.9,2.9
		c-5.5,0.8-16.4,3.4-21.7,5c-5.3,1.6-9.2,4.1-9.2,4.1c-6.7,3.7-6.1,11.7-6.1,11.7c1.1,10.7,8.3,12.5,10.9,13.9
		c2.6,1.3,16.5,3.4,28.3-3.9C282.3,355.4,281.3,343,281.3,343 M399.1,268.8h27.1v116c-0.4,7.8-0.8,11.9-5.9,19.2
		c0,0-7.5,11.8-27.9,15.7c0,0-39.7,6.7-60.2-6.4c0,0-12.7-6.6-14.7-24v-1.3h30.5c0.9,7,5.6,14.5,29.3,13.7
		c23.7-0.8,21.7-16.4,21.7-16.4v-15.6c0,0-14.1,12.7-34,12c-20-0.7-32.8-9.2-42-22.6c-9.2-13.3-11.1-29.4-8.5-47.4
		c2.6-18,11.5-27.6,20.7-34.8c9.2-7.2,21.3-9.6,32.6-9.6c11.3,0,24,5.4,31.2,12.6V268.8 M399.3,324l-0.1-1.8c0,0-0.1-7.2-2.1-13.5
		c-1.9-6.3-7.3-10.7-7.3-10.7c-14.5-12.1-30.5-4.7-32.4-3.9c-1.8,0.9-14.9,6.3-15.9,27.5c-1,21.1,11.3,30.6,11.3,30.6
		c12.2,9.3,27,7.1,36.4-0.5C398.6,344.3,399.3,334.9,399.3,324 M64.9,310.6v-22.1c0-5.9-4.8-10.8-10.8-10.8H32
		c-5.9,0-10.8,4.9-10.8,10.8v22.1c0,5.9,4.9,10.8,10.8,10.8h22.1C60.1,321.4,64.9,316.5,64.9,310.6 M64.9,377.3v-22.2
		c0-5.9-4.8-10.8-10.8-10.8H32c-5.9,0-10.8,4.9-10.8,10.8v22.2c0,5.9,4.9,10.8,10.8,10.8h22.1C60.1,388.1,64.9,383.2,64.9,377.3"/>
</g>
</svg>
