<?xml version="1.0" encoding="utf-8"?>
<!-- Generator: Adobe Illustrator 13.0.2, SVG Export Plug-In  -->
<!DOCTYPE svg PUBLIC "-//W3C//DTD SVG 1.1//EN" "http://www.w3.org/Graphics/SVG/1.1/DTD/svg11.dtd" [
	<!ENTITY ns_flows "http://ns.adobe.com/Flows/1.0/">
]>
<svg version="1.1"
	 xmlns="http://www.w3.org/2000/svg" xmlns:xlink="http://www.w3.org/1999/xlink" xmlns:a="http://ns.adobe.com/AdobeSVGViewerExtensions/3.0/"
	 x="0px" y="0px" width="188px" height="47px" viewBox="-0.835 -0.795 188 47" enable-background="new -0.835 -0.795 188 47"
	 xml:space="preserve">
<defs>
</defs>
<polygon fill-rule="evenodd" clip-rule="evenodd" points="0,2.571 8.31,2.571 8.31,24.527 17.439,24.562 17.439,32.845 0,32.845 
	0,2.571 "/>
<polygon fill-rule="evenodd" clip-rule="evenodd" points="30.242,32.845 21.897,32.845 21.897,10.889 12.768,10.817 12.768,2.571 
	30.242,2.571 30.242,32.845 "/>
<polygon fill-rule="evenodd" clip-rule="evenodd" points="9.558,0 11.626,0 11.626,10.853 9.558,10.853 9.558,0 "/>
<polygon fill-rule="evenodd" clip-rule="evenodd" points="18.759,24.456 20.792,24.456 20.792,35.273 18.759,35.273 18.759,24.456 
	"/>
<polygon fill-rule="evenodd" clip-rule="evenodd" fill="#ED1C24" stroke="#ED1C24" stroke-width="0.216" stroke-miterlimit="2.6131" points="
	40.941,1.464 48.002,1.464 48.002,34.167 40.941,34.167 40.941,1.464 "/>
<path fill-rule="evenodd" clip-rule="evenodd" fill="#ED1C24" stroke="#ED1C24" stroke-width="0.216" stroke-miterlimit="2.6131" d="
	M100.249,10.068h6.99v2.392c2.354-2.249,3.78-2.784,7.382-2.999v5.462c-2.317,0.178-7.382,1.999-7.382,6.248v13.031h-6.99V10.068
	L100.249,10.068z"/>
<path fill-rule="evenodd" clip-rule="evenodd" fill="#ED1C24" stroke="#ED1C24" stroke-width="0.216" stroke-miterlimit="2.6131" d="
	M140.37,12.317l-0.036-2.249h-7.025v24.134h7.025V19.243c-0.106-2.178,6.1-5.676,6.17,0.5v14.459h7.062V17.565
	C153.565,10.46,147.146,7.819,140.37,12.317L140.37,12.317z"/>
<path fill-rule="evenodd" clip-rule="evenodd" fill="#ED1C24" d="M121.397,9.461c-1.392-0.107-2.782-0.107-4.065-0.143v5.498
	c1.533-0.071,2.96-0.036,4.065,0.143c1.569,0.25,2.567,0.785,2.604,1.785v1.75c-0.856-0.536-1.712-0.928-2.604-1.178
	c-0.678-0.178-1.392-0.25-2.14-0.25c-4.779,0-8.202,3.82-8.202,8.604c0,4.748,3.565,8.532,8.309,8.532
	c0.714,0,1.392-0.035,2.033-0.179c0.892-0.179,1.747-0.5,2.567-0.999l0.036,1.178h7.025V16.744
	C131.026,11.067,126.176,9.782,121.397,9.461L121.397,9.461z M121.397,28.561c-1.962,0-3.566-1.57-3.566-3.534
	s1.604-3.57,3.566-3.57c0.963,0,1.854,0.393,2.496,1.035c0.643,0.643,1.035,1.535,1.035,2.535
	C124.929,26.991,123.359,28.561,121.397,28.561L121.397,28.561z"/>
<path fill-rule="evenodd" clip-rule="evenodd" fill="#ED1C24" d="M170.185,1.392l-0.035,10.746
	c-1.177-0.856-2.461-1.428-3.888-1.642c-0.392-0.072-0.82-0.072-1.248-0.072c-5.599,0-10.164,5.213-10.164,11.604
	s4.565,11.603,10.164,11.603c0.428,0,0.856-0.036,1.248-0.107c1.462-0.285,2.817-0.964,3.959-1.82l-0.036,2.393h7.062V1.392H170.185
	L170.185,1.392z M166.262,26.562c-2.604,0-4.708-2.214-4.708-4.927c0-2.678,2.104-4.892,4.708-4.892s4.743,2.214,4.743,4.892
	C171.005,24.348,168.865,26.562,166.262,26.562L166.262,26.562z"/>
<path fill-rule="evenodd" clip-rule="evenodd" fill="#ED1C24" d="M73.431,23.848c0.107-0.643,0.143-1.249,0.143-1.856
	c0-7.033-5.314-12.781-11.84-12.817c-0.036,0-0.036,0-0.071,0c-6.526,0-11.876,5.748-11.876,12.817
	c0,7.033,5.35,12.781,11.876,12.781c0.036,0,0.036,0,0.071,0c4.993-0.035,9.272-3.498,10.984-8.211h-7.168
	c-0.784,0.999-1.711,1.642-3.566,1.678c-0.072,0-0.179,0-0.25,0c-1.783-0.107-3.852-1.714-4.172-4.427h4.172L73.431,23.848
	L73.431,23.848z M57.631,19.529c0.464-2.82,1.819-4.07,4.102-4.213c0.036,0,0.107,0,0.143,0c2.354-0.143,3.566,1.606,3.958,4.177
	h-4.101L57.631,19.529L57.631,19.529z"/>
<path fill-rule="evenodd" clip-rule="evenodd" fill="#ED1C24" d="M90.941,10.068l-0.036,2.571c-1.176-1.107-2.675-1.928-4.386-2.214
	c-0.392-0.071-0.82-0.106-1.248-0.106c-5.92,0-10.735,5.212-10.735,11.603c0,6.354,4.814,11.567,10.735,11.567
	c0.428,0,0.856,0,1.248-0.036c1.64-0.143,3.067-0.643,4.422-1.642c1.141,3.284-1.462,6.961-4.422,6.747
	c-1.177-0.071-2.39-0.749-3.423-2.284h-8.738c1.533,5.676,6.918,8.782,12.161,8.89c5.813,0.143,11.448-3.392,11.448-11.067V10.068
	H90.941L90.941,10.068z M86.519,27.24c-2.639,0-4.815-2.32-4.815-5.141s2.176-5.105,4.815-5.105c2.675,0,4.814,2.285,4.814,5.105
	S89.194,27.24,86.519,27.24L86.519,27.24z"/>
<path fill="none" stroke="#ED1C24" stroke-width="0.216" stroke-miterlimit="2.6131" d="M90.905,12.639l0.036-2.571h7.025v24.027
	 M97.967,34.095c0,14.602-20.364,14.173-23.609,2.178 M74.358,36.273h8.738 M83.096,36.273c3.708,5.426,9.415,0.106,7.846-4.463
	c-1.712,1.249-3.46,1.678-5.67,1.678c-5.92,0-10.735-5.213-10.735-11.567c0-6.39,4.814-11.603,10.735-11.603
	c2.21,0,4.173,0.928,5.634,2.321 M86.519,16.994c2.675,0,4.814,2.285,4.814,5.105s-2.14,5.141-4.814,5.141
	c-2.639,0-4.815-2.32-4.815-5.141S83.88,16.994,86.519,16.994"/>
<path fill-rule="evenodd" clip-rule="evenodd" d="M180.131,4.293c0-1.807,1.361-3.169,3.104-3.169c1.725,0,3.085,1.362,3.085,3.169
	c0,1.836-1.36,3.189-3.085,3.189C181.492,7.482,180.131,6.129,180.131,4.293L180.131,4.293z M183.235,8.118
	c2.076,0,3.852-1.615,3.852-3.824c0-2.19-1.775-3.805-3.852-3.805c-2.097,0-3.87,1.615-3.87,3.805
	C179.365,6.503,181.139,8.118,183.235,8.118L183.235,8.118z M182.429,4.596h0.767l1.159,1.907h0.746l-1.25-1.937
	c0.646-0.081,1.139-0.424,1.139-1.211c0-0.868-0.514-1.251-1.553-1.251h-1.673v4.399h0.665V4.596L182.429,4.596z M182.429,4.031
	V2.669h0.907c0.464,0,0.958,0.101,0.958,0.646c0,0.676-0.505,0.717-1.068,0.717H182.429L182.429,4.031z"/>
</svg>
