<svg xmlns="http://www.w3.org/2000/svg" width="62" height="28" viewBox="0 0 62 28">
    <g fill="none" fill-rule="evenodd">
        <g>
            <g>
                <g>
                    <path fill="#28285A" d="M8.064 23.245c2.174 0 3.74-1.797 3.74-3.942 0-2.145-1.566-3.918-3.74-3.918-2.15 0-3.777 1.773-3.777 3.918 0 2.145 1.627 3.942 3.777 3.942m0-12c4.547 0 8.063 3.52 8.063 8.058s-3.516 8.083-8.063 8.083C3.516 27.386 0 23.841 0 19.303c0-4.537 3.516-8.058 8.064-8.058M19.706 27.039L19.706 27.039 19.706 15.162 17.345 15.162 17.345 11.554 19.954 11.554 19.954 2.876 23.943.669 23.943 11.554 26.564 11.554 26.564 15.162 23.943 15.162 23.943 27.039zM32.976 27.04H28.75V11.553h4.225V27.04zm-2.113-24.2c1.466 0 2.485 1.127 2.485 2.516 0 1.4-1.019 2.492-2.485 2.492-1.429 0-2.497-1.091-2.497-2.492 0-1.389 1.068-2.517 2.497-2.517zM43.698 23.245c2.174 0 3.74-1.797 3.74-3.942 0-2.145-1.566-3.918-3.74-3.918-2.15 0-3.765 1.773-3.765 3.918 0 2.145 1.616 3.942 3.765 3.942m0-12c4.548 0 8.064 3.52 8.064 8.058s-3.516 8.083-8.064 8.083c-4.547 0-8.064-3.545-8.064-8.083 0-4.537 3.517-8.058 8.064-8.058" transform="translate(-74 -14) translate(1) translate(73 14)"/>
                    <g fill="#F22563">
                        <path d="M1.395 2.157L.178 6.682c-.1.385 0 .794.286 1.066l3.342 3.323c.286.285.696.384 1.068.285l4.56-1.203c.385-.099.696-.409.795-.793l1.218-4.513c.1-.384-.012-.793-.298-1.078L7.807.459C7.533.186 7.123.074 6.738.173l-4.56 1.203c-.385.1-.683.397-.783.781" transform="translate(-74 -14) translate(1) translate(73 14) translate(49.584)"/>
                    </g>
                </g>
            </g>
        </g>
    </g>
</svg>
